<svg width="24" height="24" viewBox="0 0 24 24" fill="none" xmlns="http://www.w3.org/2000/svg">
<g clip-path="url(#clip0_201_250)">
<path d="M16 14C17.3261 14 18.5979 14.5268 19.5355 15.4645C20.4732 16.4021 21 17.6739 21 19V20C21 20.5304 20.7893 21.0391 20.4142 21.4142C20.0391 21.7893 19.5304 22 19 22H5C4.46957 22 3.96086 21.7893 3.58579 21.4142C3.21071 21.0391 3 20.5304 3 20V19C3 17.6739 3.52678 16.4021 4.46447 15.4645C5.40215 14.5268 6.67392 14 8 14H16ZM21.414 9.081C21.5935 8.89975 21.8356 8.79397 22.0905 8.78532C22.3455 8.77667 22.5942 8.8658 22.7856 9.03447C22.977 9.20313 23.0967 9.43858 23.1202 9.69262C23.1437 9.94666 23.0692 10.2001 22.912 10.401L22.828 10.496L20 13.324C19.8278 13.4962 19.5987 13.5996 19.3557 13.6149C19.1127 13.6302 18.8724 13.5563 18.68 13.407L18.586 13.324L17.172 11.91C16.9907 11.7305 16.885 11.4884 16.8763 11.2335C16.8677 10.9785 16.9568 10.7298 17.1255 10.5384C17.2941 10.347 17.5296 10.2273 17.7836 10.2038C18.0377 10.1803 18.2911 10.2548 18.492 10.412L18.586 10.496L19.293 11.203L21.414 9.081ZM12 2C13.3261 2 14.5979 2.52678 15.5355 3.46447C16.4732 4.40215 17 5.67392 17 7C17 8.32608 16.4732 9.59785 15.5355 10.5355C14.5979 11.4732 13.3261 12 12 12C10.6739 12 9.40215 11.4732 8.46447 10.5355C7.52678 9.59785 7 8.32608 7 7C7 5.67392 7.52678 4.40215 8.46447 3.46447C9.40215 2.52678 10.6739 2 12 2Z" fill="black"/>
</g>
<defs>
<clipPath id="clip0_201_250">
<rect width="24" height="24" fill="white"/>
</clipPath>
</defs>
</svg>
