<svg width="24" height="24" viewBox="0 0 24 24" fill="#ffff" xmlns="http://www.w3.org/2000/svg">
<path d="M8.1428 4.28564C7.63628 4.28564 7.13471 4.38541 6.66674 4.57925C6.19877 4.77309 5.77356 5.05721 5.41539 5.41538C5.05722 5.77354 4.77311 6.19875 4.57927 6.66672C4.38543 7.13469 4.28566 7.63626 4.28566 8.14279C4.28566 8.64931 4.38543 9.15088 4.57927 9.61885C4.77311 10.0868 5.05722 10.512 5.41539 10.8702C5.77356 11.2284 6.19877 11.5125 6.66674 11.7063C7.13471 11.9002 7.63628 11.9999 8.1428 11.9999C9.16578 11.9999 10.1469 11.5936 10.8702 10.8702C11.5936 10.1468 11.9999 9.16577 11.9999 8.14279C11.9999 7.11981 11.5936 6.13873 10.8702 5.41538C10.1469 4.69202 9.16578 4.28564 8.1428 4.28564ZM5.57138 8.14279C5.57138 7.8051 5.63789 7.47072 5.76711 7.15874C5.89634 6.84676 6.08575 6.56329 6.32453 6.32451C6.56331 6.08573 6.84678 5.89632 7.15876 5.7671C7.47074 5.63787 7.80512 5.57136 8.1428 5.57136C8.48049 5.57136 8.81487 5.63787 9.12685 5.7671C9.43883 5.89632 9.7223 6.08573 9.96108 6.32451C10.1999 6.56329 10.3893 6.84676 10.5185 7.15874C10.6477 7.47072 10.7142 7.8051 10.7142 8.14279C10.7142 8.82477 10.4433 9.47883 9.96108 9.96106C9.47884 10.4433 8.82479 10.7142 8.1428 10.7142C7.46082 10.7142 6.80677 10.4433 6.32453 9.96106C5.84229 9.47883 5.57138 8.82477 5.57138 8.14279ZM17.1428 5.99993C16.3472 5.99993 15.5841 6.316 15.0215 6.87861C14.4589 7.44122 14.1428 8.20428 14.1428 8.99993C14.1428 9.79558 14.4589 10.5586 15.0215 11.1213C15.5841 11.6839 16.3472 11.9999 17.1428 11.9999C17.9385 11.9999 18.7015 11.6839 19.2641 11.1213C19.8267 10.5586 20.1428 9.79558 20.1428 8.99993C20.1428 8.20428 19.8267 7.44122 19.2641 6.87861C18.7015 6.316 17.9385 5.99993 17.1428 5.99993ZM15.4285 8.99993C15.4285 8.54527 15.6091 8.10924 15.9306 7.78775C16.2521 7.46626 16.6881 7.28564 17.1428 7.28564C17.5975 7.28564 18.0335 7.46626 18.355 7.78775C18.6765 8.10924 18.8571 8.54527 18.8571 8.99993C18.8571 9.45459 18.6765 9.89062 18.355 10.2121C18.0335 10.5336 17.5975 10.7142 17.1428 10.7142C16.6881 10.7142 16.2521 10.5336 15.9306 10.2121C15.6091 9.89062 15.4285 9.45459 15.4285 8.99993ZM1.71423 15.6428C1.71423 15.1313 1.91742 14.6408 2.2791 14.2791C2.64078 13.9174 3.13132 13.7142 3.6428 13.7142H12.6428C13.1543 13.7142 13.6448 13.9174 14.0065 14.2791C14.3682 14.6408 14.5714 15.1313 14.5714 15.6428V16.0979C14.5703 16.1673 14.5654 16.2365 14.5568 16.3054C14.5375 16.4822 14.506 16.6574 14.4625 16.8299C14.3208 17.3928 14.0681 17.9217 13.7194 18.3856C12.8502 19.5454 11.1925 20.5714 8.1428 20.5714C5.09309 20.5714 3.43538 19.5454 2.56623 18.3856C2.21777 17.9216 1.96541 17.3927 1.82395 16.8299C1.76798 16.6059 1.73213 16.3772 1.7168 16.1468C1.71574 16.1305 1.71488 16.1142 1.71423 16.0979V15.6428ZM2.99995 16.0671V16.0825L3.00766 16.1682C3.01623 16.2488 3.03338 16.3696 3.07109 16.5179C3.17103 16.9144 3.34875 17.287 3.59395 17.6142C4.17166 18.3831 5.4068 19.2856 8.1428 19.2856C10.8788 19.2856 12.1139 18.3831 12.6908 17.6142C12.9908 17.2148 13.1399 16.8154 13.2137 16.5179C13.2497 16.3751 13.2735 16.2294 13.2848 16.0825L13.2857 16.0671V15.6428C13.2857 15.4723 13.2179 15.3088 13.0974 15.1882C12.9768 15.0677 12.8133 14.9999 12.6428 14.9999H3.6428C3.47231 14.9999 3.3088 15.0677 3.18824 15.1882C3.06768 15.3088 2.99995 15.4723 2.99995 15.6428V16.0671ZM14.6571 18.5314C15.3197 18.7345 16.1374 18.8571 17.1411 18.8571C19.5154 18.8571 20.8422 18.1748 21.5631 17.3519C21.8513 17.0263 22.0649 16.6416 22.1888 16.2248C22.2377 16.0565 22.2691 15.8836 22.2822 15.7088L22.2839 15.6685V15.6428C22.2839 15.1313 22.0808 14.6408 21.7191 14.2791C21.3574 13.9174 20.8669 13.7142 20.3554 13.7142H14.6519C14.9897 14.0665 15.2365 14.5079 15.3531 14.9999H20.3562C20.5253 14.9999 20.6875 15.0665 20.8078 15.1852C20.9281 15.3039 20.9968 15.4652 20.9991 15.6342C20.9915 15.712 20.9766 15.7889 20.9545 15.8639C20.8828 16.1014 20.7599 16.3202 20.5945 16.5051C20.1908 16.9679 19.2685 17.5714 17.1411 17.5714C16.3345 17.5714 15.7011 17.4848 15.2031 17.3511C15.071 17.7657 14.8876 18.1622 14.6571 18.5314Z" fill="white"/>
</svg>
